<?xml version="1.0" encoding="utf-8"?><svg xmlns="http://www.w3.org/2000/svg" xmlns:xlink="http://www.w3.org/1999/xlink"><symbol viewBox="0 0 20 20" id="arrow"><path fill="#D02F2A" d="M18.4 5.4c1 1.5 1.3 3 1.3 4.8s-.4 3.3-1.3 4.8-2 2.6-3.5 3.5-3.2 1.3-5 1.3-3.2-.4-4.7-1.3c-1.5-1-2.6-2-3.5-3.5-1-1.5-1.3-3-1.3-4.8S1 7 1.8 5.4c1-1.5 2-2.6 3.5-3.5C6.8 1 8.3.5 10 .5s3.4.4 5 1.3c1.4.8 2.6 2 3.4 3.4zm-1.8 4.8c0-.2 0-.4-.2-.6l-1-1L10.6 4l-.6-.2s-.2 0-.4.2l-1 1c-.3.3-.3.5-.3.7 0 .2 0 .4.2.6l2.3 2.4H4l-.2.7V11c0 .2 0 .4.2.6.2.2.3.2.6.2h6.2L8.5 14c-.2.3-.2.4-.2.7 0 .2 0 .4.2.6l1 1c.2.2.4.3.7.3l.6-.2 4.5-4.5 1-1.2.3-.6z"/></symbol><symbol viewBox="0 0 269 174" id="stamco_logo_big"><path d="M0 0h269v121.6s-121.8 112.9-269 0V0z" fill="#FFF"/><path d="M59.9 92.1s2.9.2 4.4-1.7c1.5-1.9 1.7-4.9 2.2-8.1.5-3.1 1.6-5.4 4.1-7.2s5.1-1.8 6.6-1.8c1.4 0 5.7.5 5.7.5l20.1-.1-1.7 2.5-3.5.1-3.1 18.1H85s-.9-.2-.7-1.3c.2-1.1 2.4-14.2 2.5-16.7l-2.7-.4s-.4.3-1.1.3-4.4-.1-5.1 5.8c-.6 4.9-1.3 8.3-3.8 10.2-2.6 2.1-4.3 2.4-8.1 2.4-3.9.1-5.9-.1-6.1-2.6zm38.8.6l1.4 2.5L111 82.6l7.1 12.7 9.5-6-9.8-17.1-9.6 5.6 1.1 2.4zm29.7 2.3l2.1-12.7-1.5-1.7 9.5-8 7.6 8.9 8.1-8h5.7s-3.2 19.8-3.3 20c-.1.2-.3.8-1.6.8h-8.6l1.6-11.5-9.1 8.9-6-7-1.5 8.9-3 1.4zm53.1-18.7s-4.1-1.1-6.5 1.9c-2.4 3.1-1.2 7-.6 7.8.6.8 1.7 3 6.5 3.3 0 0-4.4 4.5-4.6 4.7-.2.2-7.5 1-11.4-1.3-3.9-2.3-3.4-6.8-3.3-8.2.1-1.4 1.1-5.4 4.9-8.2 3.7-2.9 10.6-3 13.9-2.7 0 0 1.5 2.4 1.1 2.7z" fill="#010101"/><path d="M110.2 85.9l-4.6 4.6 3.4 3.6 4.6-3.7zm5-16.2l49.2-.2s2.8-8.7 6.8-12.8c4-4.2 7.5-7.1 18.9-5v-8.4s-6.8-5.2-27.5-5.2C142 38 125 43.9 115.2 69.7zm-6.6 26.2s-2.7 11.9-8.6 17.2c-5.9 5.3-12 5.6-17.9 4.2l.3 8.8s4.3 3.5 26.4 3.5 33.6-9.8 37.2-13c3.6-3.2 8.8-9.5 11.5-20.6l-49.1.1" class="bst2" fill="#d02f2a"/><path d="M196.3 73.4c-4.7.3-13.9 3.6-13.9 11.7s6.4 9.8 12.7 9.4c6.3-.4 15.1-3.1 15.1-12.7-.1-9.6-12.4-8.5-13.9-8.4zm3.2 9.9c-.1 2.6-1 8.4-3.3 8.3-2.3-.1-3-5.3-3-6.8.2-4.7 1.6-8.8 3.3-8.8 1.7 0 3 4.7 3 7.3z" fill="#010101"/></symbol><symbol viewBox="0 0 269 174" fill="#FFF" id="stamco_logo_clear"><path d="M59.9 92.1s2.9.2 4.4-1.7c1.5-1.9 1.7-4.9 2.2-8.1.5-3.1 1.6-5.4 4.1-7.2s5.1-1.8 6.6-1.8c1.4 0 5.7.5 5.7.5l20.1-.1-1.7 2.5-3.5.1-3.1 18.1H85s-.9-.2-.7-1.3c.2-1.1 2.4-14.2 2.5-16.7l-2.7-.4s-.4.3-1.1.3-4.4-.1-5.1 5.8c-.6 4.9-1.3 8.3-3.8 10.2-2.6 2.1-4.3 2.4-8.1 2.4-3.9.1-5.9-.1-6.1-2.6zm38.8.6l1.4 2.5L111 82.6l7.1 12.7 9.5-6-9.8-17.1-9.6 5.6 1.1 2.4-10.6 12.5zm29.7 2.3l2.1-12.7-1.5-1.7 9.5-8 7.6 8.9 8.1-8h5.7s-3.2 19.8-3.3 20c-.1.2-.3.8-1.6.8h-8.6l1.6-11.5-9.1 8.9-6-7-1.5 8.9-3 1.4zm53.1-18.7s-4.1-1.1-6.5 1.9c-2.4 3.1-1.2 7-.6 7.8.6.8 1.7 3 6.5 3.3 0 0-4.4 4.5-4.6 4.7-.2.2-7.5 1-11.4-1.3s-3.4-6.8-3.3-8.2c.1-1.4 1.1-5.4 4.9-8.2 3.7-2.9 10.6-3 13.9-2.7 0 0 1.5 2.4 1.1 2.7z" class="cst0"/><path d="M110.2 85.9l-4.6 4.6 3.4 3.6 4.6-3.7-3.4-4.5zm5-16.2l49.2-.2s2.8-8.7 6.8-12.8c4-4.2 7.5-7.1 18.9-5v-8.4s-6.8-5.2-27.5-5.2C142 38 125 43.9 115.2 69.7zm-6.6 26.2s-2.7 11.9-8.6 17.2c-5.9 5.3-12 5.6-17.9 4.2l.3 8.8s4.3 3.5 26.4 3.5 33.6-9.8 37.2-13 8.8-9.5 11.5-20.6l-49.1.1m87.9-22.7c-4.7.3-13.9 3.6-13.9 11.7s6.4 9.8 12.7 9.4 15.1-3.1 15.1-12.7c-.1-9.6-12.4-8.5-13.9-8.4zm3.2 9.9c-.1 2.6-1 8.4-3.3 8.3s-3-5.3-3-6.8c.2-4.7 1.6-8.8 3.3-8.8s3 4.7 3 7.3z" class="cst0"/></symbol></svg>