<svg xmlns="http://www.w3.org/2000/svg" viewBox="0 0 20 20"><path fill="#D02F2A" d="M18.4 5.4c1 1.5 1.3 3 1.3 4.8s-.4 3.3-1.3 4.8-2 2.6-3.5 3.5-3.2 1.3-5 1.3-3.2-.4-4.7-1.3c-1.5-1-2.6-2-3.5-3.5-1-1.5-1.3-3-1.3-4.8S1 7 1.8 5.4c1-1.5 2-2.6 3.5-3.5C6.8 1 8.3.5 10 .5s3.4.4 5 1.3c1.4.8 2.6 2 3.4 3.4zm-1.8 4.8c0-.2 0-.4-.2-.6l-1-1L10.6 4l-.6-.2s-.2 0-.4.2l-1 1c-.3.3-.3.5-.3.7 0 .2 0 .4.2.6l2.3 2.4H4l-.2.7V11c0 .2 0 .4.2.6.2.2.3.2.6.2h6.2L8.5 14c-.2.3-.2.4-.2.7 0 .2 0 .4.2.6l1 1c.2.2.4.3.7.3l.6-.2 4.5-4.5 1-1.2.3-.6z"/></svg>